<svg xmlns="http://www.w3.org/2000/svg" width="2000" height="2000" viewBox="0 0 2000 2000" version="1.1">
	<path d="M 952.500 29.109 C 775.076 38.105, 606.486 93.750, 460.500 191.499 C 404.958 228.689, 360.920 264.937, 312.961 312.939 C 237.491 388.477, 180.199 467.405, 132.535 561.500 C 45.112 734.082, 11.711 926.657, 35.527 1120.805 C 57.087 1296.566, 127.730 1464.621, 238.852 1604.500 C 278.582 1654.511, 327.885 1704.966, 378 1746.901 C 479.288 1831.655, 601.353 1896.638, 728.500 1933.495 C 869.872 1974.475, 1018.503 1982.797, 1165 1957.934 C 1324.735 1930.824, 1475.716 1863.230, 1604.500 1761.171 C 1653.365 1722.446, 1705.169 1671.886, 1746.071 1623 C 1855.914 1491.717, 1929.619 1332.255, 1957.995 1164.500 C 1982.578 1019.168, 1974.609 872.583, 1934.481 731.936 C 1899.902 610.741, 1840.756 495.925, 1761.171 395.500 C 1717.317 340.163, 1659.837 282.683, 1604.500 238.829 C 1507.350 161.839, 1398.636 104.876, 1281 69.326 C 1204.422 46.183, 1128.054 33.188, 1044.103 29.014 C 1020.901 27.860, 976.205 27.907, 952.500 29.109 M 970.500 163.038 C 852.391 166.813, 736.376 195.900, 629.500 248.533 C 561.564 281.989, 504.036 320.404, 445.178 371.616 C 426.305 388.037, 385.037 429.305, 368.616 448.178 C 277.974 552.354, 216.885 669.010, 184.116 800.500 C 165.836 873.849, 157.924 949.123, 160.128 1028.700 C 165.244 1213.392, 231.736 1391.403, 349.058 1534.500 C 384.934 1578.258, 428.024 1621.207, 470.678 1655.722 C 598.820 1759.412, 751.948 1822.688, 914 1838.913 C 938.530 1841.369, 950 1842.259, 950 1841.706 C 950 1841.468, 952.667 1830.750, 955.927 1817.887 C 969.868 1762.883, 979.910 1706.776, 986.424 1647.500 C 990.316 1612.080, 993.984 1563.098, 993.995 1546.396 L 994 1539.292 981.250 1538.595 C 937.295 1536.192, 899.427 1526.676, 863.404 1508.980 C 793.013 1474.401, 748.015 1409.594, 739.908 1331.119 C 738.198 1314.561, 739.271 1273.198, 741.845 1256.500 C 750.939 1197.495, 772.502 1154.978, 813.624 1114.974 C 841.714 1087.647, 865.361 1071.128, 926 1036.473 C 966.011 1013.606, 983.376 1004.463, 1012 991.189 C 1085.182 957.253, 1158.477 931.251, 1242 909.595 C 1259.894 904.956, 1289.347 898, 1291.099 898 C 1291.635 898, 1288.776 902.387, 1284.747 907.750 C 1257.458 944.069, 1240.443 976.381, 1230.640 1010.500 C 1224.128 1033.167, 1222.549 1045.369, 1222.554 1073 C 1222.560 1109.129, 1225.465 1125.864, 1242.869 1190.027 C 1252.788 1226.595, 1257.465 1246.737, 1260.404 1265.535 C 1268.428 1316.856, 1260.735 1369.055, 1238.865 1411.677 C 1216.766 1454.747, 1181.375 1488.608, 1135.500 1510.575 C 1108.281 1523.609, 1084.778 1530.459, 1046.377 1536.548 L 1043.254 1537.043 1042.581 1551.271 C 1038.881 1629.430, 1031.010 1696.307, 1017.367 1765.500 C 1012.820 1788.560, 1004.492 1825.237, 1001.563 1835.098 C 998.899 1844.071, 996.624 1843.386, 1026.750 1842.693 C 1194.526 1838.833, 1364.369 1779.802, 1500.500 1678.035 C 1558.227 1634.880, 1609.451 1585.838, 1652.689 1532.327 C 1760.020 1399.496, 1823.099 1242.922, 1837.538 1073.500 C 1839.768 1047.338, 1840.722 1007.971, 1839.871 977.250 C 1834.800 794.195, 1769.439 617.736, 1653.718 474.678 C 1627.685 442.495, 1585.214 398.125, 1556 372.590 C 1418.074 252.036, 1253.677 181.620, 1072.500 165.492 C 1057.651 164.170, 1001.917 161.797, 995 162.192 C 993.625 162.270, 982.600 162.651, 970.500 163.038 M 972.500 267.662 C 936.861 269.350, 903.008 272.884, 872.500 278.100 C 688.811 309.507, 523.650 406.664, 406.888 552 C 287.803 700.227, 227.799 890.916, 241.057 1079 C 242.531 1099.919, 244.269 1117, 244.923 1117 C 245.249 1117, 248.392 1112.162, 251.907 1106.250 C 255.422 1100.338, 265.146 1085.150, 273.516 1072.500 C 281.887 1059.850, 293.924 1040.950, 300.266 1030.500 C 306.608 1020.050, 318.887 999.800, 327.553 985.500 C 369.971 915.501, 397.875 878.909, 431.902 848.663 C 464.008 820.123, 471.159 815.969, 578 763.787 C 659.229 724.114, 699.865 695.799, 751.500 642.894 C 803 590.127, 858.893 514.691, 894.422 450 C 903.346 433.752, 909.973 427.978, 919.651 428.022 C 925.973 428.051, 931.235 430.529, 939.099 437.182 C 942.620 440.160, 972.500 464.220, 1005.500 490.648 C 1057.637 532.403, 1067.400 540.653, 1080 553.601 C 1100.770 574.946, 1118.731 597.768, 1135.011 623.500 C 1138.491 629, 1154.394 650.487, 1170.351 671.250 C 1197.304 706.319, 1199.582 709.002, 1202.432 709.022 C 1209.290 709.071, 1220.031 717.289, 1221.645 723.723 C 1221.960 724.975, 1222.567 726, 1222.994 726 C 1224.979 726, 1236.575 717.201, 1246.942 707.828 C 1275.268 682.219, 1281.495 677.169, 1291.044 672.066 C 1296.059 669.385, 1304.468 667.170, 1315.551 665.610 C 1326.516 664.067, 1338.817 668.982, 1349.583 679.209 C 1358.397 687.582, 1365.161 697.319, 1380 723 C 1391.770 743.369, 1400.340 756.536, 1406.548 763.786 C 1408.567 766.144, 1417.257 774.225, 1425.859 781.744 C 1444.948 798.429, 1483.530 836.840, 1498.940 854.500 C 1521.762 880.657, 1546.402 912.589, 1561.443 935.500 C 1575.966 957.623, 1584.391 973.942, 1594.998 1000.495 C 1603.094 1020.764, 1605.544 1025.854, 1611.688 1035.180 C 1615.710 1041.285, 1629.671 1058.060, 1631.851 1059.408 C 1632.355 1059.719, 1642.947 1056.155, 1655.389 1051.487 C 1667.832 1046.819, 1679.053 1043, 1680.325 1043 C 1683.930 1043, 1693.400 1049.290, 1712.694 1064.500 C 1732.906 1080.433, 1745.261 1089, 1748.029 1089 C 1749.557 1089, 1750.522 1087.104, 1752.954 1079.324 C 1759.601 1058.058, 1764.059 1029.060, 1762.594 1016.607 C 1762.264 1013.798, 1761.320 1000.700, 1760.496 987.500 C 1751.577 844.617, 1708.349 716.262, 1630.388 601.176 C 1522.696 442.202, 1358.513 329.776, 1171 286.606 C 1106.959 271.862, 1032.948 264.799, 972.500 267.662 M 847.730 733.716 C 833.549 756.128, 821.018 779.533, 811.604 801.190 C 806.894 812.026, 799.704 831.130, 800.219 831.441 C 800.374 831.535, 805.715 833.299, 812.089 835.362 C 835.320 842.880, 866.408 856.407, 896.571 872.121 L 911.642 879.973 921.463 868.940 C 931.873 857.247, 949.746 840.712, 962.692 830.797 C 966.986 827.508, 970.669 824.651, 970.876 824.448 C 971.481 823.857, 956.879 805.647, 946.268 793.760 C 923.654 768.428, 889.227 740.628, 861.843 725.588 L 855.186 721.932 847.730 733.716 M 1162 781.692 C 1151.365 782.823, 1126.182 787.564, 1112.826 790.951 C 1060.474 804.226, 1015.399 826.217, 976 857.707 C 966.770 865.083, 945.491 885.330, 940.975 891.031 L 938.169 894.574 947.548 900.347 C 968.196 913.056, 992.560 933.084, 1005.648 948.107 C 1009.909 952.998, 1013.904 957, 1014.525 957 C 1015.146 957, 1021.735 954.333, 1029.168 951.074 C 1080.422 928.598, 1165.616 898.986, 1218 885.438 C 1225.975 883.376, 1232.906 881.330, 1233.402 880.893 C 1235.560 878.988, 1222.760 850.535, 1210.733 830.500 C 1203.725 818.826, 1194.783 805.621, 1184.153 791.250 L 1176.572 781 1171.036 781.160 C 1167.991 781.248, 1163.925 781.487, 1162 781.692 M 713.471 843.530 C 757.707 897.514, 779.634 955.242, 784.087 1029.443 C 785.207 1048.113, 784.312 1077.422, 782.084 1095 C 781.631 1098.575, 781.355 1101.616, 781.470 1101.757 C 781.586 1101.898, 787.715 1096.970, 795.090 1090.806 C 840.262 1053.053, 901.823 1013.447, 966.469 980.549 C 976.902 975.239, 985.597 970.737, 985.791 970.543 C 985.985 970.348, 983.087 966.950, 979.351 962.990 C 949.715 931.574, 895.898 900.678, 824.021 873.817 C 794.364 862.733, 751.161 849.266, 722 842.015 C 717.325 840.853, 712.606 839.635, 711.513 839.308 C 709.996 838.855, 710.459 839.854, 713.471 843.530 M 658.445 1534.012 C 660.525 1541.085, 673.103 1571.355, 679.426 1584.500 C 719.199 1667.195, 770.287 1716.598, 825.219 1725.483 C 830.121 1726.275, 845.765 1727.468, 859.984 1728.132 C 901.867 1730.090, 932.354 1727.162, 946.911 1719.784 C 956.654 1714.846, 956.713 1714.599, 951.381 1701 C 945.643 1686.363, 935.031 1665.188, 926.861 1652.074 C 901.412 1611.224, 870.606 1585.807, 835.969 1577.085 C 814.176 1571.597, 800.169 1570.914, 765.500 1573.646 C 748.471 1574.988, 742.468 1575.091, 733.755 1574.187 C 709.996 1571.722, 688.853 1560.858, 666.107 1539.430 C 659.763 1533.453, 657.892 1532.130, 658.445 1534.012 M 1333 1551.655 C 1314.488 1568.303, 1297.049 1578.763, 1280.500 1583.144 C 1270.451 1585.805, 1249.517 1586.141, 1220.817 1584.102 C 1197.578 1582.451, 1183.372 1583.445, 1165.424 1587.978 C 1145.723 1592.953, 1130.504 1600.814, 1114.061 1614.507 C 1088.775 1635.565, 1065.482 1670.209, 1048.926 1711.384 C 1044.662 1721.987, 1044.229 1723.715, 1045.390 1725.484 C 1048.966 1730.930, 1061.301 1735.497, 1079.780 1738.217 C 1091.184 1739.895, 1146.050 1739.855, 1163.330 1738.156 C 1192.443 1735.293, 1215.057 1725.845, 1239.366 1706.389 C 1272.983 1679.483, 1305.664 1632.188, 1329.809 1575.500 C 1334.548 1564.373, 1342.264 1543.993, 1341.732 1544.005 C 1341.604 1544.008, 1337.675 1547.451, 1333 1551.655" stroke="none" fill="#357ca2" fill-rule="evenodd"/>
</svg>